<svg width="100" height="88" viewBox="0 0 100 88" fill="none" xmlns="http://www.w3.org/2000/svg">
<path d="M77.2836 47.8815C67.7156 47.8815 59.9315 55.6655 59.9315 65.2337C59.9315 74.8015 67.7154 82.5856 77.2836 82.5856C86.8514 82.5856 94.6356 74.8017 94.6356 65.2337C94.6356 55.6657 86.8516 47.8815 77.2836 47.8815ZM77.2836 79.656C69.3311 79.656 62.8611 73.1862 62.8611 65.2337C62.8611 57.2812 69.3311 50.8112 77.2836 50.8112C85.2361 50.8112 91.7059 57.2812 91.7059 65.2337C91.7059 73.1862 85.2361 79.656 77.2836 79.656ZM53.3016 23.9565H17.7801C16.9709 23.9565 16.3152 24.6122 16.3152 25.4214C16.3152 26.2306 16.9709 26.8862 17.7801 26.8862H53.3016C54.1108 26.8862 54.7664 26.2306 54.7664 25.4214C54.7664 24.6122 54.1108 23.9565 53.3016 23.9565Z" fill="#DC042B"/>
<path d="M77.2836 52.3647C77.0912 52.3647 76.9008 52.4026 76.723 52.4762C76.5453 52.5498 76.3838 52.6577 76.2478 52.7937C76.1117 52.9298 76.0038 53.0913 75.9302 53.269C75.8566 53.4467 75.8187 53.6372 75.8188 53.8296V54.9907C75.8188 55.7999 76.4744 56.4556 77.2836 56.4556C78.0928 56.4556 78.7485 55.7999 78.7485 54.9907V53.8296C78.7485 53.4411 78.5941 53.0685 78.3194 52.7938C78.0447 52.5191 77.6721 52.3647 77.2836 52.3647ZM86.0617 65.2337C86.0617 66.0429 86.7174 66.6985 87.5266 66.6985H88.6875C89.4967 66.6985 90.1524 66.0429 90.1524 65.2337C90.1524 64.4245 89.4967 63.7688 88.6875 63.7688H87.5266C87.3342 63.7688 87.1437 63.8067 86.966 63.8803C86.7883 63.9539 86.6268 64.0618 86.4907 64.1978C86.3547 64.3339 86.2468 64.4954 86.1732 64.6731C86.0996 64.8508 86.0617 65.0413 86.0617 65.2337ZM77.2836 74.0116C77.0912 74.0116 76.9008 74.0495 76.723 74.1231C76.5453 74.1967 76.3838 74.3046 76.2478 74.4406C76.1117 74.5766 76.0038 74.7381 75.9302 74.9159C75.8566 75.0936 75.8187 75.2841 75.8188 75.4765V76.6374C75.8188 77.4466 76.4744 78.1022 77.2836 78.1022C78.0928 78.1022 78.7485 77.4466 78.7485 76.6374V75.4765C78.7485 75.088 78.5941 74.7154 78.3194 74.4407C78.0447 74.166 77.6721 74.0116 77.2836 74.0116ZM67.0408 63.7688H65.8797C65.0705 63.7688 64.4149 64.4245 64.4149 65.2337C64.4149 66.0429 65.0705 66.6985 65.8797 66.6985H67.0408C67.85 66.6985 68.5057 66.0429 68.5057 65.2337C68.5057 64.4245 67.85 63.7688 67.0408 63.7688ZM77.2836 57.9769C77.0912 57.9768 76.9008 58.0147 76.723 58.0883C76.5453 58.1619 76.3838 58.2698 76.2478 58.4058C76.1117 58.5419 76.0038 58.7034 75.9302 58.8811C75.8566 59.0588 75.8187 59.2493 75.8188 59.4417V63.0153L74.4651 62.4372C74.109 62.2917 73.7101 62.292 73.3543 62.438C72.9985 62.5841 72.7144 62.8642 72.5633 63.2179C72.4123 63.5717 72.4064 63.9706 72.5469 64.3286C72.6875 64.6866 72.9631 64.975 73.3145 65.1315L76.7082 66.5808C76.931 66.6759 77.1739 66.7143 77.4152 66.6925C77.6564 66.6707 77.8885 66.5894 78.0907 66.4559C78.2928 66.3224 78.4587 66.1409 78.5735 65.9275C78.6882 65.7142 78.7483 65.4757 78.7483 65.2335V59.4417C78.7483 59.2493 78.7105 59.0588 78.6369 58.8811C78.5633 58.7034 78.4554 58.5419 78.3194 58.4058C78.1834 58.2698 78.0219 58.1619 77.8442 58.0883C77.6665 58.0147 77.476 57.9768 77.2836 57.9769ZM13.7926 57.9769C12.9834 57.9769 12.3278 58.6325 12.3278 59.4417C12.3278 60.2509 12.9834 60.9065 13.7926 60.9065H21.5028C22.3119 60.9065 22.9676 60.2509 22.9676 59.4417C22.9676 58.6325 22.3119 57.9769 21.5028 57.9769H13.7926Z" fill="#DC042B"/>
<path d="M96.7986 53.6023C96.5952 53.2775 96.2727 53.0453 95.9001 52.9555C95.5275 52.8657 95.1346 52.9254 94.8055 53.1219C94.4764 53.3184 94.2375 53.636 94.1398 54.0066C94.0422 54.3773 94.0937 54.7714 94.2832 55.1045C96.1064 58.1572 97.0703 61.6598 97.0703 65.2336C97.0703 76.1439 88.1941 85.0203 77.2836 85.0203C66.373 85.0203 57.4967 76.1441 57.4967 65.2336C57.4967 54.323 66.373 45.4467 77.2836 45.4467C82.4166 45.4467 87.2824 47.4043 90.9846 50.959C91.2655 51.2241 91.6399 51.3675 92.026 51.3579C92.4122 51.3484 92.779 51.1867 93.0465 50.908C93.314 50.6293 93.4607 50.2563 93.4545 49.8701C93.4483 49.4838 93.2898 49.1156 93.0135 48.8457C88.7629 44.7646 83.1766 42.5172 77.2834 42.5172C73.9617 42.5172 70.8041 43.2338 67.9574 44.5207V40.8998C69.8734 39.8705 71.0815 37.8768 71.0815 35.6664V21.774C71.0815 18.4963 68.4148 15.8295 65.1367 15.8295H55.2148V10.39C55.2148 4.68848 50.5762 0.0498047 44.8744 0.0498047H26.2074C20.5057 0.0498047 15.867 4.68848 15.867 10.39V15.8295H5.89355C5.87656 15.8295 5.85977 15.8299 5.84297 15.8303C2.61191 15.885 0 18.5303 0 21.774V35.6664C0 37.8766 1.20801 39.8703 3.12402 40.8998V60.0531C3.12402 64.9344 7.09531 68.9057 11.9766 68.9057H22.8361C23.6453 68.9057 24.301 68.25 24.301 67.4408C24.301 66.6316 23.6453 65.976 22.8361 65.976H11.9766C8.71055 65.976 6.05371 63.3189 6.05371 60.0531V42.1439L10.592 44.0197C11.3118 44.318 12.0835 44.4712 12.8627 44.4705H30.0594V46.2658C30.0594 48.3391 31.7461 50.0258 33.8193 50.0258H37.2623C39.3355 50.0258 41.0223 48.3391 41.0223 46.2658V44.4705H58.2189C59.002 44.4705 59.766 44.3189 60.4895 44.0197L65.0279 42.1439V46.1143C58.7402 50.1588 54.567 57.218 54.567 65.2338C54.567 65.482 54.5711 65.7295 54.5789 65.976H28.5002C27.691 65.976 27.0354 66.6316 27.0354 67.4408C27.0354 68.25 27.691 68.9057 28.5002 68.9057H54.8639C56.6242 79.6918 66.0076 87.9502 77.2838 87.9502C89.8096 87.9502 100 77.7596 100 65.2338C100 61.1313 98.893 57.1092 96.7986 53.6023ZM18.7965 10.3902C18.7965 6.30391 22.1209 2.97969 26.2072 2.97969H44.8742C48.9605 2.97969 52.285 6.3041 52.285 10.3902V15.8297H49.3512V10.3902C49.3512 7.92148 47.343 5.91328 44.8742 5.91328H36.0811C35.2719 5.91328 34.6162 6.56895 34.6162 7.37813C34.6162 8.18731 35.2719 8.84297 36.0811 8.84297H44.8742C45.7273 8.84297 46.4215 9.53711 46.4215 10.3902V15.8297H24.6602V10.3902C24.6602 9.53711 25.3543 8.84297 26.2074 8.84297H30.4174C31.2266 8.84297 31.8822 8.18731 31.8822 7.37813C31.8822 6.56895 31.2266 5.91328 30.4174 5.91328H26.2074C23.7387 5.91328 21.7305 7.92148 21.7305 10.3902V15.8297H18.7965V10.3902ZM38.0926 46.2658C38.0923 46.4859 38.0048 46.697 37.8491 46.8526C37.6935 47.0083 37.4824 47.0958 37.2623 47.0961H33.8193C33.5992 47.0958 33.3882 47.0083 33.2325 46.8526C33.0769 46.697 32.9893 46.4859 32.9891 46.2658V38.6074C32.9893 38.3873 33.0769 38.1763 33.2325 38.0206C33.3882 37.865 33.5992 37.7774 33.8193 37.7771H37.2623C37.4824 37.7774 37.6935 37.865 37.8491 38.0206C38.0048 38.1763 38.0923 38.3873 38.0926 38.6074V46.2658ZM59.3705 41.3119C59.0055 41.4633 58.6141 41.541 58.2189 41.5406H41.0223V38.6074C41.0223 36.5342 39.3355 34.8475 37.2623 34.8475H33.8193C31.7461 34.8475 30.0594 36.5342 30.0594 38.6074V41.5408H12.8627C12.4656 41.5408 12.0781 41.4639 11.7111 41.3121L4.79316 38.4527C4.24097 38.2258 3.76885 37.8397 3.43697 37.3434C3.10509 36.8472 2.92849 36.2634 2.92969 35.6664V21.774C2.92969 20.1117 4.28223 18.7592 5.94473 18.7592H65.1371C66.7996 18.7592 68.1521 20.1117 68.1521 21.774V35.6664C68.1533 36.2634 67.9767 36.8472 67.6449 37.3434C67.313 37.8397 66.8409 38.2258 66.2887 38.4527L59.3705 41.3119Z" fill="#242020"/>
</svg>
