<svg width="40" height="40" viewBox="0 0 40 40" fill="none" xmlns="http://www.w3.org/2000/svg">
<path d="M37.603 32.6256C37.603 32.6256 7.18664 32.6132 7.1807 32.6133C6.58211 32.6054 6.25883 32.6509 5.46211 33.0068L0.537344 35.2045C0.207266 35.3506 0.00234375 35.6634 0.00265625 36.0208C0.00294537 36.1938 0.0533858 36.363 0.147869 36.5079C0.242352 36.6529 0.376824 36.7673 0.535 36.8373C2.15016 37.5603 5.46188 39.0382 5.46188 39.0382C6.2075 39.3711 6.5307 39.4084 7.06047 39.4084L18.9827 39.4194C19.1381 39.4194 19.2871 39.3577 19.397 39.2478C19.5069 39.1379 19.5686 38.9889 19.5686 38.8335C19.5686 38.6781 19.5069 38.5291 19.397 38.4192C19.2871 38.3093 19.1381 38.2475 18.9827 38.2475C18.9827 38.2475 7.8325 38.2479 7.78422 38.2483V36.6084H33.6737V38.2475H21.8921C21.5684 38.2475 21.3062 38.5099 21.3062 38.8335C21.3062 39.1571 21.5684 39.4194 21.8921 39.4194H37.6031C38.9248 39.4194 40.0001 38.346 40.0001 37.0266V35.0184C40 33.699 38.9247 32.6256 37.603 32.6256ZM3.40266 35.2091V36.8351C2.79563 36.564 2.18922 36.2936 1.58156 36.0218L3.40266 35.2091ZM4.57453 37.3585V34.6861C4.57453 34.6861 6.43797 33.8662 6.61234 33.8261V38.219C6.43797 38.1789 5.00227 37.5494 4.57453 37.3585ZM7.7843 35.4366V33.7968C7.83258 33.7972 7.88227 33.7975 7.935 33.7975H33.6737V35.4366H7.7843ZM38.8281 37.0266C38.8281 37.6999 38.2786 38.2475 37.603 38.2475H34.8455V33.7974H37.603C38.2785 33.7974 38.8281 34.3451 38.8281 35.0183V37.0266ZM1.00695 30.6911L18.8973 30.689C19.0527 30.6889 19.2017 30.6272 19.3116 30.5173C19.4214 30.4074 19.4831 30.2583 19.4831 30.1029C19.4831 29.9475 19.4214 29.7985 19.3115 29.6886C19.2016 29.5788 19.0525 29.5171 18.8971 29.5171L1.17188 29.5192V5.60841H3.51445V25.1962C3.51445 25.728 3.94742 26.1606 4.47969 26.1606H28.7763C29.1779 26.1606 29.527 25.9438 29.6658 25.6083C29.8041 25.2737 29.7125 24.9 29.4205 24.6086L10.3796 5.60841H31.9307V24.1878C31.9307 24.7352 32.3765 25.1806 32.9245 25.1806H35.5072C36.7062 25.1806 37.6816 26.1533 37.6816 27.3488C37.6816 28.5443 36.7062 29.517 35.5072 29.517H21.5873C21.2636 29.517 21.0013 29.7793 21.0013 30.1029C21.0013 30.4265 21.2636 30.6889 21.5873 30.6889H35.5071C37.3522 30.6889 38.8534 29.1905 38.8534 27.3488V5.3813C38.8534 3.53833 37.3522 2.03903 35.5071 2.03903H32.9244C32.3764 2.03903 31.9306 2.48341 31.9306 3.02966V4.43661H9.20516L5.0668 0.307003C4.77398 0.0148157 4.39875 -0.075575 4.06289 0.06505C3.72695 0.205831 3.51164 0.555363 3.51445 0.951456V4.43653H1.00687C0.451719 4.43653 0 4.8888 0 5.44474V29.683C0 30.2388 0.451719 30.6911 1.00695 30.6911ZM33.1026 3.21083H35.5071C36.7061 3.21083 37.6815 4.18442 37.6815 5.38122V24.8118C37.0962 24.3113 36.3364 24.0086 35.5071 24.0086H33.1026V3.21083ZM4.68633 1.58294L28.142 24.9888H23.1181V24.1659C23.1181 23.8423 22.8559 23.58 22.5322 23.58C22.2085 23.58 21.9462 23.8423 21.9462 24.1659V24.9888H19.4327V23.3915C19.4327 23.2361 19.3709 23.0871 19.261 22.9772C19.1512 22.8673 19.0021 22.8056 18.8467 22.8056C18.6913 22.8056 18.5423 22.8673 18.4324 22.9772C18.3225 23.0871 18.2608 23.2361 18.2608 23.3915V24.9888H15.7449V24.1659C15.7449 24.0105 15.6832 23.8615 15.5733 23.7516C15.4634 23.6417 15.3144 23.58 15.159 23.58C15.0036 23.58 14.8545 23.6417 14.7447 23.7516C14.6348 23.8615 14.573 24.0105 14.573 24.1659V24.9888H12.0595V23.3915C12.0595 23.2361 11.9977 23.0871 11.8878 22.9772C11.778 22.8673 11.6289 22.8056 11.4735 22.8056C11.3181 22.8056 11.1691 22.8673 11.0592 22.9772C10.9493 23.0871 10.8876 23.2361 10.8876 23.3915V24.9888H8.37188V24.1659C8.37188 24.0105 8.31014 23.8615 8.20026 23.7516C8.09037 23.6417 7.94134 23.58 7.78594 23.58C7.63054 23.58 7.4815 23.6417 7.37162 23.7516C7.26173 23.8615 7.2 24.0105 7.2 24.1659V24.9888H4.68633V1.58294Z" fill="white"/>
<path d="M9.72405 20.7246H16.2158C16.4605 20.7246 16.9158 20.7246 17.0902 20.3031C17.2617 19.8885 16.9623 19.5898 16.7437 19.3717L10.317 12.9593C10.0987 12.7398 9.79968 12.4393 9.38452 12.6105C8.96265 12.7846 8.96265 13.2396 8.96265 13.4841V19.9636C8.96272 20.4259 9.26155 20.7246 9.72405 20.7246ZM10.1346 14.4326L15.2661 19.5527H10.1346V14.4326Z" fill="white"/>
</svg>
