<svg width="40" height="40" viewBox="0 0 40 40" fill="none" xmlns="http://www.w3.org/2000/svg">
<path d="M28.7678 21.531H28.7704L35.3436 21.482C35.5991 21.4794 35.8055 21.273 35.8055 21.0175C35.8055 19.3503 35.1578 17.7838 33.9784 16.6043C32.7989 15.4249 31.2324 14.7772 29.5652 14.7772H28.7652C28.5097 14.7772 28.3007 14.9862 28.3007 15.2417V21.0665C28.3007 21.1904 28.3497 21.3091 28.4374 21.3968C28.5278 21.482 28.6439 21.531 28.7678 21.531ZM29.2323 15.7062H29.5678C30.9872 15.7062 32.3189 16.2585 33.3228 17.2624C34.2158 18.1554 34.7526 19.3116 34.8584 20.5555L29.2323 20.5994V15.7062Z" fill="white"/>
<path d="M37.9115 26.0576H37.8986V21.0174C37.8986 18.7902 37.0315 16.6998 35.4572 15.1255C33.8829 13.5512 31.7899 12.6841 29.5653 12.6841H27.1368V8.46454C27.1368 8.20904 26.9277 8 26.6722 8H5.69834C5.44284 8 5.2338 8.20904 5.2338 8.46454V11.2647H0.464538C0.209042 11.2647 0 11.4737 0 11.7292C0 11.9847 0.209042 12.1937 0.464538 12.1937H9.44303C9.69853 12.1937 9.90757 11.9847 9.90757 11.7292C9.90757 11.4737 9.69853 11.2647 9.44303 11.2647H6.16288V8.92908H26.2103V26.0576H16.0292C15.4691 24.7002 14.1323 23.7427 12.5735 23.7427C11.0147 23.7427 9.67788 24.7002 9.11786 26.0576H6.16288V21.9284H9.13334C9.38884 21.9284 9.59788 21.7194 9.59788 21.4639C9.59788 21.2084 9.38884 20.9993 9.13334 20.9993H2.08784C1.83235 20.9993 1.6233 21.2084 1.6233 21.4639C1.6233 21.7194 1.83235 21.9284 2.08784 21.9284H5.2338V26.0576H5.22089C4.84152 26.0576 4.48538 26.2047 4.21698 26.4731C3.94858 26.7415 3.80147 27.0977 3.80147 27.4771C3.80147 28.259 4.43892 28.8965 5.22089 28.8965H9.11786C9.67788 30.254 11.0147 31.2114 12.5735 31.2114C14.1323 31.2114 15.4691 30.254 16.0292 28.8965H28.6001C29.1601 30.254 30.4969 31.2114 32.0557 31.2114C33.6145 31.2114 34.9514 30.254 35.5114 28.8965H37.9141C38.2934 28.8965 38.6496 28.7494 38.918 28.481C39.1864 28.2126 39.3335 27.8564 39.3335 27.4771C39.3309 26.6925 38.6935 26.0576 37.9115 26.0576ZM27.1368 13.6132H29.5653C33.6481 13.6132 36.9695 16.9346 36.9695 21.0174V26.0576H35.5088C34.9488 24.7002 33.6119 23.7427 32.0532 23.7427C30.4944 23.7427 29.1575 24.7002 28.5975 26.0576H27.1368V13.6132ZM5.22089 27.9674C4.94991 27.9674 4.73055 27.748 4.73055 27.4771C4.73055 27.3454 4.78216 27.2216 4.87507 27.1287C4.96798 27.0357 5.08928 26.9841 5.22089 26.9841H8.8701C8.84946 27.1441 8.83913 27.3093 8.83913 27.4745C8.83913 27.6397 8.84946 27.8048 8.8701 27.9648H5.22089V27.9674ZM12.5735 30.2824C11.025 30.2824 9.76563 29.0229 9.76563 27.4745C9.76563 25.926 11.025 24.6666 12.5735 24.6666C14.122 24.6666 15.3814 25.926 15.3814 27.4745C15.3814 29.0229 14.122 30.2824 12.5735 30.2824ZM16.2769 27.9674C16.2976 27.8074 16.3079 27.6422 16.3079 27.4771C16.3079 27.3119 16.2976 27.1467 16.2769 26.9867H28.3497C28.3291 27.1467 28.3188 27.3119 28.3188 27.4771C28.3188 27.6422 28.3291 27.8074 28.3497 27.9674H16.2769ZM32.0532 30.2824C30.5047 30.2824 29.2453 29.0229 29.2453 27.4745C29.2453 25.926 30.5047 24.6666 32.0532 24.6666C33.6016 24.6666 34.861 25.926 34.861 27.4745C34.861 29.0229 33.6016 30.2824 32.0532 30.2824ZM38.2573 27.8229C38.1644 27.9158 38.0405 27.9674 37.9115 27.9674H35.7591C35.7798 27.8074 35.7901 27.6422 35.7901 27.4771C35.7901 27.3119 35.7798 27.1467 35.7591 26.9867H37.9141C38.1851 26.9867 38.4044 27.2061 38.4044 27.4771C38.4018 27.6061 38.3502 27.73 38.2573 27.8229Z" fill="white"/>
<path d="M12.5735 25.9389C11.7244 25.9389 11.0354 26.628 11.0354 27.477C11.0354 28.3235 11.7244 29.0152 12.5735 29.0152C13.4226 29.0152 14.1116 28.3261 14.1116 27.477C14.1116 26.628 13.42 25.9389 12.5735 25.9389ZM12.5735 28.0835C12.238 28.0835 11.9644 27.81 11.9644 27.4745C11.9644 27.139 12.238 26.8654 12.5735 26.8654C12.909 26.8654 13.1826 27.139 13.1826 27.4745C13.1826 27.8125 12.909 28.0835 12.5735 28.0835ZM32.0531 25.9389C31.2041 25.9389 30.515 26.628 30.515 27.477C30.515 28.3235 31.2041 29.0152 32.0531 29.0152C32.9022 29.0152 33.5913 28.3261 33.5913 27.477C33.5913 26.628 32.9022 25.9389 32.0531 25.9389ZM32.0531 28.0835C31.7176 28.0835 31.4441 27.81 31.4441 27.4745C31.4441 27.139 31.7176 26.8654 32.0531 26.8654C32.3886 26.8654 32.6622 27.139 32.6622 27.4745C32.6622 27.8125 32.3886 28.0835 32.0531 28.0835ZM14.1787 12.1937C14.4342 12.1937 14.6433 11.9847 14.6433 11.7292C14.6433 11.4737 14.4342 11.2646 14.1787 11.2646H11.5154C11.2599 11.2646 11.0509 11.4737 11.0509 11.7292C11.0509 11.9847 11.2599 12.1937 11.5154 12.1937H14.1787ZM5.4351 14.5087H2.29688C2.04139 14.5087 1.83235 14.7177 1.83235 14.9732C1.83235 15.2287 2.04139 15.4378 2.29688 15.4378H5.4351C5.69059 15.4378 5.89964 15.2287 5.89964 14.9732C5.89964 14.7177 5.69059 14.5087 5.4351 14.5087ZM7.04292 14.9732C7.04292 15.2287 7.25196 15.4378 7.50746 15.4378H16.0111C16.2666 15.4378 16.4756 15.2287 16.4756 14.9732C16.4756 14.7177 16.2666 14.5087 16.0111 14.5087H7.50746C7.24938 14.5087 7.04292 14.7177 7.04292 14.9732ZM3.29564 18.2198C3.29564 17.9643 3.0866 17.7553 2.8311 17.7553H0.464538C0.209042 17.7553 0 17.9643 0 18.2198C0 18.4753 0.209042 18.6844 0.464538 18.6844H2.8311C3.0866 18.6844 3.29564 18.4753 3.29564 18.2198ZM4.43634 18.2198C4.43634 18.4753 4.64538 18.6844 4.90088 18.6844H14.1762C14.4317 18.6844 14.6407 18.4753 14.6407 18.2198C14.6407 17.9643 14.4317 17.7553 14.1762 17.7553H4.90088C4.64538 17.7553 4.43634 17.9617 4.43634 18.2198ZM11.2031 20.9993C10.9476 20.9993 10.7386 21.2084 10.7386 21.4638C10.7386 21.7193 10.9476 21.9284 11.2031 21.9284H15.7995C16.055 21.9284 16.264 21.7193 16.264 21.4638C16.264 21.2084 16.055 20.9993 15.7995 20.9993H11.2031Z" fill="white"/>
</svg>
