<svg width="100" height="100" viewBox="0 0 100 100" fill="none" xmlns="http://www.w3.org/2000/svg">
<g clip-path="url(#clip0_523_1186)">
<path d="M98.5352 97.0703H93.7375V76.9359C94.6963 76.093 95.3031 74.8588 95.3031 73.4848C95.3031 70.9504 93.2412 68.8887 90.707 68.8887H81.1236L79.6438 45.2117C79.6205 44.8398 79.4564 44.4907 79.1848 44.2355C78.9131 43.9804 78.5545 43.8383 78.1818 43.8383H71.9191C71.5465 43.8383 71.1878 43.9804 70.9162 44.2355C70.6446 44.4907 70.4805 44.8398 70.4572 45.2117L68.9773 68.8887H65.467L63.9871 45.2117C63.9639 44.8398 63.7997 44.4907 63.5281 44.2355C63.2565 43.9804 62.8979 43.8383 62.5252 43.8383H56.2627C55.89 43.8383 55.5314 43.9804 55.2598 44.2355C54.9882 44.4907 54.824 44.8398 54.8008 45.2117L53.3209 68.8887H49.8105L48.3307 45.2117C48.3074 44.8398 48.1433 44.4907 47.8717 44.2355C47.6001 43.9804 47.2414 43.8383 46.8688 43.8383H40.6063C40.2336 43.8383 39.8749 43.9804 39.6033 44.2355C39.3317 44.4907 39.1676 44.8398 39.1443 45.2117L37.6645 68.8887H33.5844L32.677 28.0484C32.6684 27.6657 32.5104 27.3015 32.2367 27.0338C31.963 26.7661 31.5953 26.6162 31.2125 26.6162H21.8186C21.4357 26.6162 21.0681 26.7661 20.7944 27.0338C20.5207 27.3015 20.3626 27.6657 20.3541 28.0484L19.3074 75.1514H7.72734C5.19297 75.1514 3.13125 77.2133 3.13125 79.7475C3.13125 81.1215 3.73809 82.3557 4.69688 83.1986V97.0703H1.46484C1.07634 97.0703 0.703754 97.2246 0.429043 97.4994C0.154331 97.7741 0 98.1467 0 98.5352C0 98.9237 0.154331 99.2962 0.429043 99.571C0.703754 99.8457 1.07634 100 1.46484 100H98.5352C98.9237 100 99.2962 99.8457 99.571 99.571C99.8457 99.2962 100 98.9237 100 98.5352C100 98.1467 99.8457 97.7741 99.571 97.4994C99.2962 97.2246 98.9237 97.0703 98.5352 97.0703ZM19.1678 81.4141H13.9906C13.6021 81.4141 13.2295 81.5684 12.9548 81.8431C12.6801 82.1178 12.5258 82.4904 12.5258 82.8789C12.5258 83.2674 12.6801 83.64 12.9548 83.9147C13.2295 84.1894 13.6021 84.3438 13.9906 84.3438H19.1027L18.8199 97.0703H7.62656V84.341C7.66016 84.3418 7.69355 84.3436 7.72734 84.3436C8.11584 84.3436 8.48843 84.1892 8.76314 83.9145C9.03786 83.6398 9.19219 83.2672 9.19219 82.8787C9.19219 82.4902 9.03786 82.1176 8.76314 81.8429C8.48843 81.5682 8.11584 81.4139 7.72734 81.4139C6.8084 81.4139 6.06094 80.6662 6.06094 79.7475C6.06094 78.8285 6.80859 78.0811 7.72734 78.0811H19.2418L19.1678 81.4141ZM73.2951 46.768H76.8055L78.1881 68.8887H71.9127L73.2951 46.768ZM57.6387 46.768H61.149L62.5316 68.8887H56.2563L57.6387 46.768ZM41.9822 46.768H45.4926L46.875 68.8887H40.5996L41.9822 46.768ZM25.0506 97.0703H21.7506L23.2508 29.5457H29.7795L30.6539 68.8887H28.0811C25.5467 68.8887 23.4848 70.9506 23.4848 73.4848C23.4848 74.8588 24.0916 76.093 25.0506 76.9359V97.0703ZM90.707 75.1512H87.5758C87.1873 75.1512 86.8147 75.3055 86.54 75.5802C86.2653 75.8549 86.1109 76.2275 86.1109 76.616C86.1109 77.0045 86.2653 77.3771 86.54 77.6518C86.8147 77.9265 87.1873 78.0809 87.5758 78.0809H90.707C90.7408 78.0809 90.7742 78.0789 90.8078 78.0783V97.0703H27.9801V78.0783C28.0137 78.0791 28.0471 78.0809 28.0809 78.0809H81.3143C81.7028 78.0809 82.0753 77.9265 82.3501 77.6518C82.6248 77.3771 82.7791 77.0045 82.7791 76.616C82.7791 76.2275 82.6248 75.8549 82.3501 75.5802C82.0753 75.3055 81.7028 75.1512 81.3143 75.1512H28.0809C27.1619 75.1512 26.4143 74.4035 26.4143 73.4848C26.4143 72.566 27.1619 71.8184 28.0809 71.8184H90.7068C91.6258 71.8184 92.3734 72.5658 92.3734 73.4848C92.3734 74.4037 91.6258 75.1512 90.707 75.1512ZM81.3131 0C76.9002 0 72.6932 1.54004 69.3301 4.36211C66.9156 2.55039 63.9895 1.56562 60.9596 1.56562C57.2814 1.56562 53.7701 3.01777 51.1602 5.58516C49.805 5.00031 48.3447 4.69806 46.8688 4.69688C42.5137 4.69688 38.6314 7.30449 36.9275 11.207C36.3413 11.0425 35.7353 10.9592 35.1264 10.9594C32.1004 10.9594 29.4982 12.9271 28.5688 15.6836C28.4067 15.6656 28.2439 15.6565 28.0809 15.6564C25.5465 15.6564 23.4846 17.7184 23.4846 20.2525C23.4845 20.6411 23.6389 21.0137 23.9136 21.2884C24.1883 21.5632 24.5609 21.7176 24.9494 21.7176C25.3379 21.7176 25.7106 21.5633 25.9853 21.2886C26.2601 21.0139 26.4144 20.6413 26.4145 20.2527C26.4145 19.3338 27.1621 18.5863 28.0811 18.5863C28.3717 18.5863 28.6566 18.6686 28.9277 18.8309C29.1436 18.9601 29.3891 19.0316 29.6405 19.0384C29.892 19.0452 30.141 18.9871 30.3635 18.8698C30.586 18.7524 30.7746 18.5796 30.9109 18.3682C31.0473 18.1568 31.1268 17.9138 31.142 17.6627C31.2703 15.5469 33.0205 13.8895 35.1262 13.8895C35.792 13.8895 36.4492 14.0693 37.0793 14.4242C37.2742 14.534 37.4917 14.5977 37.7151 14.6104C37.9385 14.6231 38.1618 14.5844 38.3679 14.4974C38.574 14.4104 38.7574 14.2773 38.9041 14.1084C39.0508 13.9394 39.1568 13.7391 39.2141 13.5229C40.1338 10.0514 43.2814 7.62676 46.8686 7.62676C48.2279 7.62676 49.5746 7.98223 50.7629 8.65449C51.0576 8.82123 51.4009 8.88072 51.7346 8.82286C52.0682 8.765 52.3714 8.59335 52.5928 8.33711C54.7014 5.8957 57.751 4.49551 60.9594 4.49551C63.7025 4.49551 66.34 5.51953 68.3857 7.37871C68.6608 7.62874 69.0207 7.76482 69.3924 7.75938C69.7641 7.75394 70.1198 7.60738 70.3875 7.34941C73.3445 4.49922 77.2246 2.92969 81.3131 2.92969C90.0018 2.92969 97.0703 9.99844 97.0703 18.6869C97.0703 27.3754 90.0018 34.4441 81.3131 34.4441C75.5445 34.4441 70.2416 31.2945 67.4738 26.2244C67.2959 25.8985 67.0009 25.6524 66.6485 25.5357C66.296 25.419 65.9124 25.4406 65.5752 25.5959C64.1061 26.2727 62.5531 26.6158 60.9596 26.6158C57.7512 26.6158 54.7016 25.2156 52.593 22.7742C52.3716 22.518 52.0684 22.3463 51.7348 22.2885C51.4011 22.2306 51.0578 22.2901 50.7631 22.4568C49.5751 23.129 48.2337 23.4831 46.8688 23.4846C44.3934 23.4846 42.1027 22.3512 40.5846 20.375C40.4485 20.1979 40.2738 20.0543 40.0737 19.9551C39.8737 19.8559 39.6536 19.8037 39.4303 19.8025H39.423C39.201 19.8026 38.9818 19.8531 38.7821 19.9503C38.5824 20.0474 38.4074 20.1887 38.2703 20.3635C37.4953 21.352 36.3494 21.9188 35.1264 21.9188C34.7379 21.9188 34.3653 22.0731 34.0906 22.3478C33.8159 22.6225 33.6615 22.9951 33.6615 23.3836C33.6615 23.7721 33.8159 24.1447 34.0906 24.4194C34.3653 24.6941 34.7379 24.8484 35.1264 24.8484C36.6608 24.8499 38.1513 24.3358 39.3586 23.3887C41.3686 25.3277 44.0291 26.4141 46.8688 26.4141C48.3447 26.4129 49.8049 26.1107 51.1602 25.526C53.7701 28.0934 57.2816 29.5455 60.9596 29.5455C62.5302 29.5466 64.0895 29.2798 65.5703 28.7564C68.993 34.1031 74.9109 37.3738 81.3131 37.3738C91.6172 37.3738 100 28.9908 100 18.6869C100 8.38301 91.6172 0 81.3131 0Z" fill="black"/>
<path d="M37.4749 81.4141C37.0864 81.4141 36.7138 81.5684 36.4391 81.8431C36.1643 82.1178 36.01 82.4904 36.01 82.8789V86.0102C36.01 86.3987 36.1643 86.7712 36.4391 87.046C36.7138 87.3207 37.0864 87.475 37.4749 87.475C37.8634 87.475 38.2359 87.3207 38.5107 87.046C38.7854 86.7712 38.9397 86.3987 38.9397 86.0102V82.8789C38.9397 82.4904 38.7854 82.1178 38.5107 81.8431C38.2359 81.5684 37.8634 81.4141 37.4749 81.4141ZM43.7375 81.4141C43.349 81.4141 42.9765 81.5684 42.7017 81.8431C42.427 82.1178 42.2727 82.4904 42.2727 82.8789V86.0102C42.2727 86.3987 42.427 86.7712 42.7017 87.046C42.9765 87.3207 43.349 87.475 43.7375 87.475C44.126 87.475 44.4986 87.3207 44.7733 87.046C45.0481 86.7712 45.2024 86.3987 45.2024 86.0102V82.8789C45.2024 82.4904 45.0481 82.1178 44.7733 81.8431C44.4986 81.5684 44.126 81.4141 43.7375 81.4141ZM50 81.4141C49.6115 81.4141 49.239 81.5684 48.9642 81.8431C48.6895 82.1178 48.5352 82.4904 48.5352 82.8789V86.0102C48.5352 86.3987 48.6895 86.7712 48.9642 87.046C49.239 87.3207 49.6115 87.475 50 87.475C50.3885 87.475 50.7611 87.3207 51.0359 87.046C51.3106 86.7712 51.4649 86.3987 51.4649 86.0102V82.8789C51.4649 82.4904 51.3106 82.1178 51.0359 81.8431C50.7611 81.5684 50.3885 81.4141 50 81.4141ZM56.2625 81.4141C55.874 81.4141 55.5015 81.5684 55.2267 81.8431C54.952 82.1178 54.7977 82.4904 54.7977 82.8789V86.0102C54.7977 86.3987 54.952 86.7712 55.2267 87.046C55.5015 87.3207 55.874 87.475 56.2625 87.475C56.651 87.475 57.0236 87.3207 57.2984 87.046C57.5731 86.7712 57.7274 86.3987 57.7274 86.0102V82.8789C57.7274 82.4904 57.5731 82.1178 57.2984 81.8431C57.0236 81.5684 56.651 81.4141 56.2625 81.4141ZM62.5252 81.4141C62.1367 81.4141 61.7642 81.5684 61.4894 81.8431C61.2147 82.1178 61.0604 82.4904 61.0604 82.8789V86.0102C61.0604 86.3987 61.2147 86.7712 61.4894 87.046C61.7642 87.3207 62.1367 87.475 62.5252 87.475C62.9137 87.475 63.2863 87.3207 63.561 87.046C63.8358 86.7712 63.9901 86.3987 63.9901 86.0102V82.8789C63.9901 82.4904 63.8358 82.1178 63.561 81.8431C63.2863 81.5684 62.9137 81.4141 62.5252 81.4141ZM68.7877 81.4141C68.3992 81.4141 68.0267 81.5684 67.7519 81.8431C67.4772 82.1178 67.3229 82.4904 67.3229 82.8789V86.0102C67.3229 86.3987 67.4772 86.7712 67.7519 87.046C68.0267 87.3207 68.3992 87.475 68.7877 87.475C69.1762 87.475 69.5488 87.3207 69.8235 87.046C70.0983 86.7712 70.2526 86.3987 70.2526 86.0102V82.8789C70.2526 82.4904 70.0983 82.1178 69.8235 81.8431C69.5488 81.5684 69.1762 81.4141 68.7877 81.4141ZM75.0504 81.4141C74.6619 81.4141 74.2894 81.5684 74.0146 81.8431C73.7399 82.1178 73.5856 82.4904 73.5856 82.8789V86.0102C73.5856 86.3987 73.7399 86.7712 74.0146 87.046C74.2894 87.3207 74.6619 87.475 75.0504 87.475C75.4389 87.475 75.8115 87.3207 76.0862 87.046C76.361 86.7712 76.5153 86.3987 76.5153 86.0102V82.8789C76.5153 82.4904 76.361 82.1178 76.0862 81.8431C75.8115 81.5684 75.4389 81.4141 75.0504 81.4141ZM81.3131 81.4141C80.9246 81.4141 80.552 81.5684 80.2773 81.8431C80.0026 82.1178 79.8483 82.4904 79.8483 82.8789V86.0102C79.8483 86.3987 80.0026 86.7712 80.2773 87.046C80.552 87.3207 80.9246 87.475 81.3131 87.475C81.7016 87.475 82.0742 87.3207 82.3489 87.046C82.6236 86.7712 82.778 86.3987 82.778 86.0102V82.8789C82.778 82.4904 82.6236 82.1178 82.3489 81.8431C82.0742 81.5684 81.7016 81.4141 81.3131 81.4141Z" fill="#DC042B"/>
</g>
<defs>
<clipPath id="clip0_523_1186">
<rect width="100" height="100" fill="white"/>
</clipPath>
</defs>
</svg>
