<svg width="40" height="40" viewBox="0 0 40 40" fill="none" xmlns="http://www.w3.org/2000/svg">
<g clip-path="url(#clip0_523_546)">
<path d="M26.25 26.25C26.25 25.587 25.9866 24.9511 25.5178 24.4822C25.0489 24.0134 24.413 23.75 23.75 23.75H15.7062L16.25 19.45C16.2531 19.4251 16.2531 19.3999 16.25 19.375C16.25 15.9125 13.8 15 12.5 15C12.3597 14.9948 12.2218 15.037 12.1084 15.1198C11.995 15.2025 11.9128 15.3211 11.875 15.4562L9.375 24.1375C8.95505 24.9656 8.30368 25.6538 7.5 26.1188V25.625C7.5 25.4592 7.43415 25.3003 7.31694 25.1831C7.19973 25.0658 7.04076 25 6.875 25H0.625C0.45924 25 0.300269 25.0658 0.183058 25.1831C0.065848 25.3003 0 25.4592 0 25.625L0 39.375C0 39.5408 0.065848 39.6997 0.183058 39.8169C0.300269 39.9342 0.45924 40 0.625 40H6.875C7.04076 40 7.19973 39.9342 7.31694 39.8169C7.43415 39.6997 7.5 39.5408 7.5 39.375V38.9563L11.0812 40C11.1371 40.0096 11.1942 40.0096 11.25 40H21.875C22.3485 39.9933 22.8103 39.8523 23.2068 39.5934C23.6033 39.3344 23.918 38.9682 24.1145 38.5374C24.3109 38.1065 24.381 37.6287 24.3164 37.1596C24.2519 36.6905 24.0555 36.2493 23.75 35.8875C24.0596 35.7012 24.3251 35.4499 24.5283 35.1511C24.7314 34.8523 24.8674 34.513 24.9268 34.1565C24.9862 33.8001 24.9676 33.4351 24.8724 33.0865C24.7771 32.7379 24.6074 32.4142 24.375 32.1375C24.6846 31.9512 24.9501 31.6999 25.1533 31.4011C25.3564 31.1023 25.4924 30.763 25.5518 30.4065C25.6112 30.0501 25.5926 29.6851 25.4974 29.3365C25.4021 28.9879 25.2324 28.6642 25 28.3875C25.376 28.1704 25.689 27.8592 25.9082 27.4844C26.1274 27.1096 26.2452 26.6842 26.25 26.25ZM6.25 38.75H1.25V26.25H6.25V38.75ZM21.875 38.75H11.3375L7.5 37.6562V27.425C9.375 26.9938 10.5062 24.7625 10.5562 24.6562C10.5735 24.6199 10.5881 24.5823 10.6 24.5438L12.9562 16.3062C13.6875 16.4688 14.9875 17.075 15 19.3375L14.375 24.3C14.3643 24.3872 14.3722 24.4757 14.398 24.5597C14.4239 24.6437 14.4671 24.7214 14.525 24.7875C14.5843 24.855 14.6574 24.9089 14.7393 24.9455C14.8213 24.9822 14.9102 25.0008 15 25H23.75C24.0815 25 24.3995 25.1317 24.6339 25.3661C24.8683 25.6005 25 25.9185 25 26.25C25 26.5815 24.8683 26.8995 24.6339 27.1339C24.3995 27.3683 24.0815 27.5 23.75 27.5H20.625C20.4592 27.5 20.3003 27.5658 20.1831 27.6831C20.0658 27.8003 20 27.9592 20 28.125C20 28.2908 20.0658 28.4497 20.1831 28.5669C20.3003 28.6842 20.4592 28.75 20.625 28.75H23.125C23.4565 28.75 23.7745 28.8817 24.0089 29.1161C24.2433 29.3505 24.375 29.6685 24.375 30C24.375 30.3315 24.2433 30.6495 24.0089 30.8839C23.7745 31.1183 23.4565 31.25 23.125 31.25H20C19.8342 31.25 19.6753 31.3158 19.5581 31.4331C19.4408 31.5503 19.375 31.7092 19.375 31.875C19.375 32.0408 19.4408 32.1997 19.5581 32.3169C19.6753 32.4342 19.8342 32.5 20 32.5H22.5C22.8315 32.5 23.1495 32.6317 23.3839 32.8661C23.6183 33.1005 23.75 33.4185 23.75 33.75C23.75 34.0815 23.6183 34.3995 23.3839 34.6339C23.1495 34.8683 22.8315 35 22.5 35H19.375C19.2092 35 19.0503 35.0658 18.9331 35.1831C18.8158 35.3003 18.75 35.4592 18.75 35.625C18.75 35.7908 18.8158 35.9497 18.9331 36.0669C19.0503 36.1842 19.2092 36.25 19.375 36.25H21.875C22.2065 36.25 22.5245 36.3817 22.7589 36.6161C22.9933 36.8505 23.125 37.1685 23.125 37.5C23.125 37.8315 22.9933 38.1495 22.7589 38.3839C22.5245 38.6183 22.2065 38.75 21.875 38.75ZM8.125 9.375H8.75V10C8.75 10.1658 8.81585 10.3247 8.93306 10.4419C9.05027 10.5592 9.20924 10.625 9.375 10.625C9.54076 10.625 9.69973 10.5592 9.81694 10.4419C9.93415 10.3247 10 10.1658 10 10V9.375H10.625C10.7908 9.375 10.9497 9.30915 11.0669 9.19194C11.1842 9.07473 11.25 8.91576 11.25 8.75C11.25 8.58424 11.1842 8.42527 11.0669 8.30806C10.9497 8.19085 10.7908 8.125 10.625 8.125H10V7.5C10 7.33424 9.93415 7.17527 9.81694 7.05806C9.69973 6.94085 9.54076 6.875 9.375 6.875C9.20924 6.875 9.05027 6.94085 8.93306 7.05806C8.81585 7.17527 8.75 7.33424 8.75 7.5V8.125H8.125C7.95924 8.125 7.80027 8.19085 7.68306 8.30806C7.56585 8.42527 7.5 8.58424 7.5 8.75C7.5 8.91576 7.56585 9.07473 7.68306 9.19194C7.80027 9.30915 7.95924 9.375 8.125 9.375ZM33.75 31.25H33.125V30.625C33.125 30.4592 33.0592 30.3003 32.9419 30.1831C32.8247 30.0658 32.6658 30 32.5 30C32.3342 30 32.1753 30.0658 32.0581 30.1831C31.9408 30.3003 31.875 30.4592 31.875 30.625V31.25H31.25C31.0842 31.25 30.9253 31.3158 30.8081 31.4331C30.6908 31.5503 30.625 31.7092 30.625 31.875C30.625 32.0408 30.6908 32.1997 30.8081 32.3169C30.9253 32.4342 31.0842 32.5 31.25 32.5H31.875V33.125C31.875 33.2908 31.9408 33.4497 32.0581 33.5669C32.1753 33.6842 32.3342 33.75 32.5 33.75C32.6658 33.75 32.8247 33.6842 32.9419 33.5669C33.0592 33.4497 33.125 33.2908 33.125 33.125V32.5H33.75C33.9158 32.5 34.0747 32.4342 34.1919 32.3169C34.3092 32.1997 34.375 32.0408 34.375 31.875C34.375 31.7092 34.3092 31.5503 34.1919 31.4331C34.0747 31.3158 33.9158 31.25 33.75 31.25Z" fill="white"/>
<path d="M26.25 9.81533e-06C22.6033 9.81533e-06 19.1059 1.44867 16.5273 4.02729C13.9487 6.60592 12.5 10.1033 12.5 13.75C12.5 13.9158 12.5658 14.0747 12.6831 14.192C12.8003 14.3092 12.9592 14.375 13.125 14.375C13.2908 14.375 13.4497 14.3092 13.5669 14.192C13.6842 14.0747 13.75 13.9158 13.75 13.75C13.7507 11.3798 14.4253 9.05874 15.6951 7.05739C16.9648 5.05603 18.7774 3.45693 20.9214 2.44656C23.0655 1.43619 25.4525 1.05621 27.8043 1.35093C30.1561 1.64565 32.3756 2.60292 34.204 4.11111C36.0324 5.61929 37.3943 7.61622 38.131 9.86901C38.8676 12.1218 38.9486 14.5376 38.3644 16.8346C37.7803 19.1317 36.5551 21.2153 34.8318 22.8426C33.1084 24.4698 30.958 25.5735 28.6312 26.025C28.4655 26.0408 28.3128 26.1217 28.2067 26.2501C28.1006 26.3784 28.0499 26.5436 28.0656 26.7094C28.0814 26.8751 28.1623 27.0279 28.2907 27.1339C28.419 27.24 28.5842 27.2908 28.75 27.275H28.8687C32.2569 26.6555 35.2892 24.787 37.3658 22.039C39.4424 19.291 40.4119 15.8637 40.0828 12.4351C39.7536 9.00652 38.1496 5.82634 35.5881 3.52366C33.0266 1.22098 29.6942 -0.0364869 26.25 9.81533e-06Z" fill="white"/>
<path d="M31.875 16.25C31.875 14.9239 31.3482 13.6521 30.4105 12.7145C29.4729 11.7768 28.2011 11.25 26.875 11.25H25.625C25.2935 11.25 24.9755 11.1183 24.7411 10.8839C24.5067 10.6495 24.375 10.3315 24.375 10C24.375 9.66848 24.5067 9.35054 24.7411 9.11612C24.9755 8.8817 25.2935 8.75 25.625 8.75H30C30.4973 8.75 30.9742 8.55246 31.3258 8.20083C31.6775 7.84919 31.875 7.37228 31.875 6.875C31.875 6.37772 31.6775 5.90081 31.3258 5.54917C30.9742 5.19754 30.4973 5 30 5H28.125V3.125C28.125 2.95924 28.0592 2.80027 27.9419 2.68306C27.8247 2.56585 27.6658 2.5 27.5 2.5H25C24.8342 2.5 24.6753 2.56585 24.5581 2.68306C24.4408 2.80027 24.375 2.95924 24.375 3.125V5.1625C23.2 5.46958 22.1769 6.19383 21.4968 7.20001C20.8167 8.20618 20.5261 9.4255 20.6792 10.6303C20.8322 11.8351 21.4186 12.9429 22.3287 13.747C23.2389 14.5512 24.4105 14.9965 25.625 15H26.875C27.2065 15 27.5245 15.1317 27.7589 15.3661C27.9933 15.6005 28.125 15.9185 28.125 16.25C28.125 16.5815 27.9933 16.8995 27.7589 17.1339C27.5245 17.3683 27.2065 17.5 26.875 17.5H22.5C22.0027 17.5 21.5258 17.6975 21.1742 18.0492C20.8225 18.4008 20.625 18.8777 20.625 19.375C20.625 19.8723 20.8225 20.3492 21.1742 20.7008C21.5258 21.0525 22.0027 21.25 22.5 21.25H24.375V23.125C24.375 23.2908 24.4408 23.4497 24.5581 23.5669C24.6753 23.6842 24.8342 23.75 25 23.75H27.5C27.6658 23.75 27.8247 23.6842 27.9419 23.5669C28.0592 23.4497 28.125 23.2908 28.125 23.125V21.0875C29.1977 20.8105 30.148 20.1852 30.8267 19.3096C31.5054 18.434 31.8742 17.3578 31.875 16.25ZM27.4125 19.9562C27.2623 19.9775 27.125 20.0526 27.0261 20.1676C26.9272 20.2826 26.8735 20.4296 26.875 20.5812V22.5H25.625V20.625C25.625 20.4592 25.5592 20.3003 25.4419 20.1831C25.3247 20.0658 25.1658 20 25 20H22.5C22.3342 20 22.1753 19.9342 22.0581 19.8169C21.9408 19.6997 21.875 19.5408 21.875 19.375C21.875 19.2092 21.9408 19.0503 22.0581 18.9331C22.1753 18.8158 22.3342 18.75 22.5 18.75H26.875C27.538 18.75 28.1739 18.4866 28.6428 18.0178C29.1116 17.5489 29.375 16.913 29.375 16.25C29.375 15.587 29.1116 14.9511 28.6428 14.4822C28.1739 14.0134 27.538 13.75 26.875 13.75H25.625C24.6828 13.7418 23.7782 13.3792 23.0912 12.7343C22.4042 12.0894 21.9852 11.2096 21.9174 10.2698C21.8497 9.32997 22.1382 8.39911 22.7256 7.66237C23.313 6.92563 24.1562 6.43703 25.0875 6.29375C25.2377 6.27252 25.375 6.19742 25.4739 6.08243C25.5728 5.96744 25.6265 5.82041 25.625 5.66875V3.75H26.875V5.625C26.875 5.79076 26.9408 5.94973 27.0581 6.06694C27.1753 6.18415 27.3342 6.25 27.5 6.25H30C30.1658 6.25 30.3247 6.31585 30.4419 6.43306C30.5592 6.55027 30.625 6.70924 30.625 6.875C30.625 7.04076 30.5592 7.19973 30.4419 7.31694C30.3247 7.43415 30.1658 7.5 30 7.5H25.625C24.962 7.5 24.3261 7.76339 23.8572 8.23223C23.3884 8.70107 23.125 9.33696 23.125 10C23.125 10.663 23.3884 11.2989 23.8572 11.7678C24.3261 12.2366 24.962 12.5 25.625 12.5H26.875C27.8172 12.5082 28.7218 12.8708 29.4088 13.5157C30.0958 14.1606 30.5148 15.0404 30.5826 15.9802C30.6503 16.92 30.3618 17.8509 29.7744 18.5876C29.187 19.3244 28.3438 19.813 27.4125 19.9562Z" fill="white"/>
</g>
<defs>
<clipPath id="clip0_523_546">
<rect width="40" height="40" fill="white"/>
</clipPath>
</defs>
</svg>
