<svg width="100" height="100" viewBox="0 0 100 100" fill="none" xmlns="http://www.w3.org/2000/svg">
<path d="M72.1701 18.3122C72.0328 18.1778 71.8703 18.0718 71.692 18.0002C71.5137 17.9286 71.3231 17.8928 71.1309 17.8949C70.9388 17.897 70.749 17.9369 70.5723 18.0123C70.3956 18.0877 70.2354 18.1972 70.1011 18.3346C69.9667 18.4719 69.8606 18.6343 69.789 18.8126C69.7174 18.9909 69.6816 19.1816 69.6837 19.3737C69.6858 19.5659 69.7257 19.7557 69.8011 19.9324C69.8766 20.1091 69.9861 20.2692 70.1234 20.4036C75.6496 25.8118 78.7269 33.0362 78.7879 40.746C78.9094 56.4985 65.751 69.7599 49.9972 69.7599C43.2947 69.7597 37.1117 67.4528 32.2082 63.5872C32.5172 63.5021 32.7897 63.318 32.9839 63.0631C33.1782 62.8082 33.2834 62.4966 33.2834 62.1761V59.2958C35.1283 59.4608 37.7508 59.8282 38.9008 60.7112C39.8377 61.4304 40.9949 61.8271 42.1592 61.8278L62.1412 61.8399C65.6785 61.5103 68.1045 57.8628 66.0433 54.6839C68.0637 53.3056 68.6648 50.2626 67.2578 48.2214C69.1629 46.8048 69.6865 43.8657 68.3242 41.879C71.7053 39.3829 70.1195 33.5077 65.5777 33.5046L53.0488 33.497C54.2125 29.3655 54.0367 25.0481 52.526 20.0851C51.1326 15.5081 43.9301 16.6532 44.1814 21.5616C44.4512 26.8147 41.3004 28.8899 37.3113 31.5173C35.9668 32.4028 34.5949 33.3065 33.2834 34.3737V31.944C33.2834 31.7519 33.2456 31.5616 33.1721 31.3841C33.0985 31.2066 32.9908 31.0453 32.8549 30.9094C32.719 30.7736 32.5577 30.6658 32.3802 30.5923C32.2027 30.5188 32.0124 30.4809 31.8203 30.481H23.1806C27.4123 19.6872 38.1959 12.2718 49.7771 12.1825C55.3078 12.138 60.6976 13.6776 65.3574 16.6313C65.6851 16.8334 66.0791 16.8981 66.4542 16.8116C66.8293 16.7251 67.1552 16.4942 67.3613 16.1691C67.5673 15.844 67.637 15.4508 67.5551 15.0746C67.4733 14.6985 67.2465 14.3698 66.924 14.1597C61.858 10.9489 56.0129 9.25537 50.0037 9.25537C32.6576 9.25537 18.1514 23.8702 18.2855 41.2161C18.4201 58.389 32.8092 72.6868 49.9971 72.6858C67.3648 72.6858 81.848 58.0983 81.714 40.723C81.6469 32.2282 78.2574 24.2692 72.1701 18.3122ZM33.2842 38.3511C34.9543 36.5739 36.9685 35.2474 38.9209 33.9614C43.1185 31.1966 47.4592 28.3376 47.1037 21.412C47.0336 20.045 49.217 19.2642 49.7263 20.9376C51.2799 26.0411 51.2564 30.3272 49.6527 34.4259C49.4037 35.5706 49.8576 36.236 51.0142 36.4222L65.5758 36.431C66.5205 36.4315 67.2887 37.2007 67.2881 38.1454C67.2875 39.0897 66.5189 39.8577 65.5748 39.8577H65.5738L61.6222 39.8552H61.6213C61.2332 39.855 60.861 40.0091 60.5866 40.2834C60.3121 40.5576 60.1578 40.9297 60.1577 41.3178C60.1576 41.7058 60.3116 42.078 60.5859 42.3525C60.8602 42.6269 61.2323 42.7812 61.6203 42.7813L64.5135 42.7833C65.4502 42.7933 66.209 43.5587 66.2084 44.4976C66.2078 45.4419 65.439 46.2099 64.4949 46.2099H64.4939L61.6178 46.2081H61.617C61.2289 46.208 60.8567 46.362 60.5823 46.6363C60.3078 46.9106 60.1535 47.2827 60.1534 47.6707C60.1533 48.0587 60.3073 48.4309 60.5816 48.7054C60.8559 48.9799 61.228 49.1341 61.616 49.1343L63.4576 49.1354C64.3924 49.1474 65.149 49.9122 65.1484 50.8497C65.1478 51.794 64.3791 52.562 63.4349 52.562H63.434L60.558 52.5603H60.557C60.169 52.5601 59.7968 52.7141 59.5223 52.9884C59.2478 53.2627 59.0936 53.6348 59.0934 54.0229C59.0933 54.4109 59.2473 54.7831 59.5216 55.0576C59.7959 55.332 60.168 55.4863 60.556 55.4864L62.1445 55.4874C63.1885 55.5862 63.7592 56.1575 63.8566 57.2017C63.8558 58.2169 63.0174 58.7774 62.1424 58.914L42.1603 58.9019C41.6361 58.9015 41.1111 58.72 40.6818 58.3903C38.9693 57.0757 36.1 56.5925 33.2834 56.3599V38.3511H33.2842ZM22.2133 33.4075H30.3572V60.713H29.0668C24.25 55.6091 21.2711 48.7479 21.2119 41.1936C21.1912 38.5282 21.5328 35.9142 22.2133 33.4075Z" fill="#DC042B"/>
<path d="M91.2068 37.6689L86.5047 30.976C86.0416 30.3196 85.7996 29.5328 85.8139 28.7297L85.9437 20.551C85.9689 19.1296 85.5421 17.7369 84.7249 16.5737C83.9076 15.4105 82.7422 14.5368 81.3965 14.0785L73.6582 11.4279C72.9015 11.1704 72.246 10.6795 71.7859 10.0258L67.0934 3.09765C65.4078 0.897652 62.2895 -0.384574 59.5563 0.526363L51.7566 3.16953C50.9989 3.40081 50.1875 3.38727 49.4379 3.13086L41.5711 0.357418C38.8396 -0.578129 35.7066 0.363668 33.9932 2.70566L29.2062 9.35156C28.7256 9.98947 28.0552 10.4587 27.2912 10.6918L19.4729 13.0957C18.1133 13.511 16.9208 14.3473 16.067 15.4839C15.2133 16.6206 14.7425 17.9989 14.7225 19.4203L14.5926 27.599C14.5815 28.4022 14.3147 29.181 13.8309 29.8223L8.91875 36.3625C8.06286 37.4976 7.58949 38.8751 7.56689 40.2966C7.54428 41.718 7.9736 43.1099 8.79297 44.2717L13.4951 50.965C13.9583 51.6213 14.2002 52.408 14.1857 53.2111L14.0561 61.3896C14.0308 62.811 14.4575 64.2037 15.2747 65.3669C16.092 66.5302 17.2574 67.4039 18.6031 67.8621L26.3416 70.5131C27.2686 70.8852 27.9715 71.4701 28.4508 72.2676L26.4098 75.8027C26.3137 75.9691 26.2513 76.1528 26.2262 76.3433C26.2011 76.5338 26.2138 76.7274 26.2635 76.913C26.3133 77.0986 26.3991 77.2726 26.516 77.425C26.633 77.5774 26.7789 77.7053 26.9453 77.8014C27.6852 78.1848 28.3514 78.0062 28.9439 77.2658L30.2682 74.9723L32.9029 78.8935C34.4107 81.1555 37.851 82.3643 40.4516 81.4664L45.0471 79.8769L36.0635 95.4381L32.4336 88.0959C32.3058 87.8367 32.1041 87.6213 31.8539 87.4769C31.6037 87.3324 31.3162 87.2654 31.0279 87.2844L22.8549 87.8109L25.7504 82.7965C25.8465 82.6301 25.9089 82.4464 25.934 82.2559C25.959 82.0654 25.9464 81.8718 25.8966 81.6862C25.8469 81.5006 25.7611 81.3266 25.6441 81.1742C25.5271 81.0218 25.3813 80.8939 25.2148 80.7978C25.0485 80.7018 24.8648 80.6394 24.6743 80.6143C24.4838 80.5892 24.2902 80.6019 24.1046 80.6516C23.919 80.7013 23.745 80.7871 23.5926 80.9041C23.4401 81.0211 23.3123 81.167 23.2162 81.3334L18.9537 88.7148C18.348 89.9779 18.8602 90.9045 20.3148 90.9064L30.2428 90.2668L34.6521 99.1855C35.1738 100.24 36.651 100.273 37.2309 99.2685L49.1557 78.6123C49.7965 78.6045 50.4063 78.7211 50.9854 78.9623L62.7104 99.2685C63.2904 100.273 64.7672 100.241 65.2891 99.1855L69.6984 90.2668L79.6262 90.9064C80.9566 90.9777 81.615 89.9291 80.9873 88.7146L76.7365 81.3541C76.5403 81.0224 76.2211 80.7814 75.8483 80.6837C75.4754 80.5859 75.0791 80.6392 74.7453 80.8319C74.4115 81.0247 74.1673 81.3413 74.0656 81.7131C73.964 82.0849 74.0131 82.4818 74.2023 82.8176L77.0859 87.8103L68.9133 87.2838C68.6251 87.2654 68.3379 87.3326 68.0878 87.477C67.8377 87.6214 67.6358 87.8365 67.5076 88.0953L63.8775 95.4379L55.2523 80.5C56.7371 81.1814 58.8281 81.968 60.4986 81.968C62.5725 81.968 64.5752 81.0043 65.8807 79.2662L69.3953 74.4893L71.0111 77.2885C71.6035 78.0291 72.2697 78.2076 73.0096 77.8242C73.176 77.7282 73.3219 77.6003 73.4389 77.4479C73.5559 77.2955 73.6417 77.1216 73.6915 76.936C73.7412 76.7504 73.7539 76.5568 73.7288 76.3663C73.7038 76.1758 73.6414 75.9922 73.5453 75.8258L71.3398 72.0049C71.7383 71.6601 72.2046 71.4025 72.7086 71.2486L80.5272 68.8447C81.8867 68.4294 83.0792 67.5931 83.933 66.4565C84.7867 65.3199 85.2575 63.9415 85.2775 62.5201L85.4074 54.3412C85.4184 53.538 85.6853 52.7593 86.1691 52.1182L91.0814 45.5777C91.9372 44.4426 92.4104 43.0651 92.433 41.6438C92.4555 40.2224 92.0262 38.8306 91.2068 37.6689ZM88.7414 43.8207L83.8293 50.3609C82.9732 51.4957 82.501 52.8738 82.4814 54.2951L82.3516 62.4738C82.3403 63.2771 82.0743 64.056 81.5918 64.6983C81.1094 65.3406 80.4355 65.8132 79.6672 66.0478L71.8486 68.4518C70.2721 68.8035 69.1217 69.8348 68.3328 70.9961L63.5324 77.5205C63.0524 78.1623 62.3813 78.6355 61.6156 78.8722C60.8498 79.1088 60.0288 79.0968 59.2703 78.8377L51.5447 76.0533C50.1465 75.5664 48.3176 75.6152 47.3166 75.9953L39.5213 78.6916C38.7585 78.9224 37.9424 78.9072 37.1887 78.6479C36.4351 78.3887 35.7822 77.8987 35.3228 77.2475L30.6326 70.2668C29.8424 69.1148 28.7283 68.274 27.2904 67.7443L19.552 65.0932C18.7915 64.8342 18.1329 64.3405 17.6711 63.6831C17.2093 63.0258 16.9681 62.2388 16.9824 61.4355L17.1121 53.257C17.1377 51.8358 16.7096 50.4434 15.89 49.282L11.1875 42.5893C10.7244 41.9328 10.4818 41.1462 10.4946 40.3429C10.5074 39.5396 10.7749 38.7612 11.2586 38.1197L16.1707 31.5795C17.0267 30.4447 17.4988 29.0666 17.5186 27.6453L17.6484 19.4666C17.6597 18.6634 17.9257 17.8844 18.4082 17.2421C18.8906 16.5998 19.5645 16.1272 20.3328 15.8926L28.1512 13.4887C29.6031 13.0037 30.7434 12.199 31.5713 11.0746L36.3582 4.42871C37.352 3.11543 39.0641 2.59218 40.6105 3.12148L48.4771 5.89472C49.9441 6.36582 51.3434 6.38359 52.6748 5.94804L60.4742 3.30488C61.2378 3.07284 62.0552 3.08759 62.8099 3.34701C63.5647 3.60644 64.2183 4.09732 64.6779 4.7498L69.3705 11.6779C70.1641 12.8252 71.2771 13.6646 72.7098 14.1961L80.4481 16.8467C81.2085 17.1057 81.8671 17.5995 82.3289 18.2568C82.7908 18.9142 83.032 19.7012 83.0178 20.5045L82.8879 28.6834C82.8625 30.1046 83.2907 31.4968 84.1102 32.6582L88.8123 39.3512C89.2753 40.0077 89.518 40.7942 89.5052 41.5975C89.4925 42.4007 89.225 43.1792 88.7414 43.8207Z" fill="#242020"/>
<path d="M25.7613 42.433C25.3733 42.433 25.0011 42.2789 24.7267 42.0045C24.4524 41.7301 24.2982 41.358 24.2982 40.9699C24.2982 40.5819 24.4524 40.2097 24.7267 39.9354C25.0011 39.661 25.3733 39.5068 25.7613 39.5068C26.1493 39.5068 26.5215 39.661 26.7959 39.9354C27.0702 40.2097 27.2244 40.5819 27.2244 40.9699C27.2244 41.358 27.0702 41.7301 26.7959 42.0045C26.5215 42.2789 26.1493 42.433 25.7613 42.433Z" fill="#242020"/>
</svg>
