<svg width="100" height="100" viewBox="0 0 100 100" fill="none" xmlns="http://www.w3.org/2000/svg">
<mask id="mask0_523_1195" style="mask-type:luminance" maskUnits="userSpaceOnUse" x="0" y="0" width="100" height="100">
<path d="M0 0.000289917H99.9997V100H0V0.000289917Z" fill="white"/>
</mask>
<g mask="url(#mask0_523_1195)">
<path d="M32.468 24.8887L32.4727 34.7508C32.6315 42.1383 37.3258 48.0151 44.1606 50.3922C45.8961 50.9957 47.8395 51.3715 49.9998 51.3955C59.0299 51.2947 67.315 44.616 67.5267 34.7508L67.5314 24.8887" stroke="#242020" stroke-width="3" stroke-miterlimit="10" stroke-linecap="round" stroke-linejoin="round"/>
<path d="M70.1857 11.0114C70.1837 5.73873 65.9087 1.46491 60.6359 1.46511L42.8881 1.46569C42.1537 1.46569 41.4333 1.66627 40.8046 2.0458C40.1759 2.42533 39.6628 2.96937 39.3207 3.6192V3.66237C39.3207 5.12291 38.15 6.07427 36.7073 5.84927C33.0026 5.27154 29.8098 8.12075 29.8098 11.7155V24.9424C29.9991 24.907 30.1944 24.8889 30.3942 24.8889H33.8237C34.9985 24.3143 35.8076 23.1076 35.8076 21.7117V18.5475C35.8076 16.6688 37.3307 15.1455 39.2096 15.1455C39.6412 15.1719 41.1262 15.0028 43.0668 15.6614C43.3977 15.7252 48.4969 17.9526 55.174 16.2949C56.2652 16.0242 57.0088 15.7448 57.2687 15.6614C59.057 15.0545 60.6275 15.1569 60.7902 15.1455C62.6691 15.1455 64.1921 16.6688 64.1921 18.5475V21.7115C64.1921 23.1076 65.0013 24.3143 66.1761 24.8889H69.6056C69.8054 24.8889 70.0005 24.907 70.1898 24.9424L70.187 17.935" stroke="#242020" stroke-width="3" stroke-miterlimit="10" stroke-linecap="round" stroke-linejoin="round"/>
<path d="M67.5267 34.751H69.6056C71.358 34.751 72.7787 33.3305 72.7787 31.5779V28.0617C72.7787 26.3094 71.358 24.8889 69.6056 24.8889" stroke="#242020" stroke-width="3" stroke-miterlimit="10" stroke-linecap="round" stroke-linejoin="round"/>
<path d="M44.5214 70.2007L47.2846 76.0942H52.7153L55.4788 70.2007" stroke="#DC042B" stroke-width="3" stroke-miterlimit="10" stroke-linecap="round" stroke-linejoin="round"/>
<path d="M47.2846 76.094L43.6406 98.5352" stroke="#DC042B" stroke-width="3" stroke-miterlimit="10" stroke-linecap="round" stroke-linejoin="round"/>
<path d="M56.3591 98.5352L52.7152 76.094" stroke="#DC042B" stroke-width="3" stroke-miterlimit="10" stroke-linecap="round" stroke-linejoin="round"/>
<path d="M75.6046 85.0156H65.2826C65.0797 85.0156 64.8789 84.9757 64.6915 84.898C64.5041 84.8204 64.3338 84.7066 64.1903 84.5632C64.0469 84.4197 63.9332 84.2494 63.8556 84.062C63.7779 83.8746 63.738 83.6737 63.738 83.4709V79.4067C63.738 79.2038 63.7779 79.0029 63.8556 78.8155C63.9332 78.6281 64.0469 78.4578 64.1903 78.3144C64.3338 78.1709 64.5041 78.0572 64.6915 77.9795C64.8789 77.9019 65.0797 77.8619 65.2826 77.8619H75.6046C76.0143 77.8619 76.4072 78.0247 76.6969 78.3144C76.9866 78.6041 77.1493 78.997 77.1493 79.4067V83.4709C77.1493 83.8806 76.9866 84.2735 76.6969 84.5632C76.4072 84.8529 76.0143 85.0156 75.6046 85.0156Z" stroke="#DC042B" stroke-width="3" stroke-miterlimit="10" stroke-linecap="round" stroke-linejoin="round"/>
<path d="M30.394 24.8889C28.6415 24.8889 27.2209 26.3094 27.2209 28.0617V31.5779C27.2209 33.3305 28.6415 34.751 30.394 34.751H32.4729" stroke="#242020" stroke-width="3" stroke-miterlimit="10" stroke-linecap="round" stroke-linejoin="round"/>
<path d="M10.3663 87.3504V94.3621C10.3663 96.6668 12.2345 98.5352 14.5392 98.5352H85.4602C87.7649 98.5352 89.6333 96.6668 89.6333 94.3621V76.6637C89.6333 70.9628 86.2778 65.7958 81.0696 63.4769C77.5657 61.9167 71.6968 60.7575 67.1132 60.0308L67.1134 60.0304C66.7531 59.9736 66.3541 59.9122 66.0232 59.8622L66.023 59.8624C65.0012 59.7088 63.978 59.5655 62.9533 59.4325C62.3335 59.3525 61.755 59.0785 61.3004 58.6497L61.2996 58.6501C61.0047 58.373 60.7698 58.0384 60.6094 57.6669C60.4489 57.2954 60.3663 56.895 60.3666 56.4904V48.0908" stroke="#242020" stroke-width="3" stroke-miterlimit="10" stroke-linecap="round" stroke-linejoin="round"/>
<path d="M39.633 48.097V56.4907C39.633 57.336 39.2776 58.1063 38.7 58.6503L38.6993 58.6499C38.2447 59.0786 37.6661 59.3526 37.0463 59.4327C36.0217 59.5657 34.9984 59.709 33.9766 59.8626L33.9764 59.8624C29.262 60.5688 22.7557 61.7737 18.93 63.477C13.7218 65.7959 10.3663 70.9629 10.3663 76.6641V80.4785" stroke="#242020" stroke-width="3" stroke-miterlimit="10" stroke-linecap="round" stroke-linejoin="round"/>
<path d="M32.8862 60.0305L36.7393 69.9304C37.4712 71.8109 39.6639 72.6517 41.4655 71.7425L49.9999 67.4353L38.6995 58.6498" stroke="#242020" stroke-width="3" stroke-miterlimit="10" stroke-linecap="round" stroke-linejoin="round"/>
<path d="M61.3001 58.6498L49.9998 67.4353L58.5341 71.7425C60.3357 72.6517 62.5284 71.8111 63.2603 69.9306L67.1134 60.0304" stroke="#242020" stroke-width="3" stroke-miterlimit="10" stroke-linecap="round" stroke-linejoin="round"/>
<path d="M22.8503 91.0063V98.1875" stroke="#242020" stroke-width="3" stroke-miterlimit="10" stroke-linecap="round" stroke-linejoin="round"/>
<path d="M77.1493 91.0063V98.1875" stroke="#242020" stroke-width="3" stroke-miterlimit="10" stroke-linecap="round" stroke-linejoin="round"/>
</g>
</svg>
