<svg width="56" height="56" viewBox="0 0 56 56" fill="none" xmlns="http://www.w3.org/2000/svg">
<path d="M7 23.3333H49M7 32.6667H49M28 23.3333V42M11.6667 42H44.3333C45.571 42 46.758 41.5083 47.6332 40.6332C48.5083 39.758 49 38.571 49 37.3333V18.6667C49 17.429 48.5083 16.242 47.6332 15.3668C46.758 14.4917 45.571 14 44.3333 14H11.6667C10.429 14 9.242 14.4917 8.36683 15.3668C7.49167 16.242 7 17.429 7 18.6667V37.3333C7 38.571 7.49167 39.758 8.36683 40.6332C9.242 41.5083 10.429 42 11.6667 42Z" stroke="#242020" stroke-width="4" stroke-linecap="round" stroke-linejoin="round"/>
</svg>
